<?xml version="1.0" encoding="utf-8"?>
<!-- Generator: Adobe Illustrator 16.0.0, SVG Export Plug-In . SVG Version: 6.00 Build 0)  -->
<!DOCTYPE svg PUBLIC "-//W3C//DTD SVG 1.1//EN" "http://www.w3.org/Graphics/SVG/1.1/DTD/svg11.dtd">
<svg version="1.1" id="Ebene_1" xmlns="http://www.w3.org/2000/svg" xmlns:xlink="http://www.w3.org/1999/xlink" x="0px" y="0px"
	 width="100px" height="50px" viewBox="0 0 100 50" enable-background="new 0 0 100 50" xml:space="preserve">
<g>
	<g>
		<path fill="#3C8A38" d="M86.581,1.553c-0.197,0-0.396,0.031-0.587,0.094L81.477,3.13c-0.126,0.041-0.244,0.094-0.355,0.158
			c-0.128,0.015-0.256,0.042-0.38,0.083l-5.39,1.768c-0.442,0.146-0.804,0.445-1.031,0.828c-0.137-0.013-0.278-0.02-0.423-0.02
			c-0.68,0-1.432,0.139-2.3,0.424l-5.075,1.666c-0.199,0.065-0.381,0.161-0.542,0.282c-0.006,0-0.011,0-0.016,0
			c-0.197,0-0.396,0.031-0.588,0.094l-4.531,1.486c-0.14,0.046-0.271,0.108-0.393,0.182c-0.143,0.012-0.285,0.041-0.424,0.086
			l-4.286,1.407c-0.157,0.051-0.303,0.122-0.438,0.209c-0.159,0.009-0.318,0.039-0.474,0.09l-5.185,1.702
			c-0.518,0.17-0.931,0.553-1.142,1.043c-0.021-0.012-0.042-0.024-0.063-0.036c-0.276-0.147-0.581-0.222-0.888-0.222
			c-0.198,0-0.396,0.031-0.587,0.094l-5.158,1.692c-0.773,0.254-1.296,0.976-1.296,1.79v0.652l-0.01-0.031
			c-0.156-0.475-0.494-0.868-0.94-1.094c-0.266-0.134-0.558-0.203-0.851-0.203c-0.197,0-0.396,0.031-0.587,0.094l-5.226,1.714
			c-0.48,0.158-0.863,0.496-1.085,0.924c-0.261-0.129-0.546-0.195-0.834-0.195c-0.197,0-0.395,0.032-0.587,0.094l-8.206,2.693
			c-0.05,0.016-0.099,0.035-0.147,0.055c-0.05,0.012-0.102,0.026-0.152,0.042l-9.131,2.997c-0.774,0.253-1.296,0.976-1.296,1.79
			v3.724c0,0.604,0.29,1.171,0.778,1.525c0.326,0.235,0.713,0.358,1.106,0.358c0.197,0,0.395-0.031,0.587-0.094l0.699-0.229v0.426
			c-0.673,0.301-1.115,0.972-1.115,1.722v1.903c0,0.322,0.082,0.635,0.234,0.91l-1.084,0.361c-0.843,0.281-1.375,1.112-1.277,1.996
			c0.099,0.882,0.801,1.577,1.685,1.665c0.062,0.007,6.166,0.626,9.732,1.615c2.984,0.829,5.17,4.183,5.191,4.215
			c0.321,0.509,0.864,0.833,1.462,0.874c0.044,0.004,0.087,0.005,0.131,0.005c0.552,0,1.079-0.242,1.438-0.667
			c0.024-0.029,2.842-3.282,9.874-8.029c8.102-5.469,46.133-20.172,46.517-20.319c0.727-0.281,1.206-0.979,1.206-1.758v-2.303
			c0-0.389-0.12-0.764-0.338-1.076c0.133-0.259,0.206-0.552,0.206-0.857v-1.862c0-0.604-0.289-1.171-0.778-1.526
			c-0.325-0.235-0.713-0.357-1.105-0.357c-0.06,0-0.118,0.003-0.176,0.008l-0.731-0.812l0.979-1.64l0.488-0.16
			c0.773-0.254,1.296-0.976,1.296-1.79V3.437c0-0.604-0.29-1.171-0.778-1.526C87.36,1.675,86.973,1.553,86.581,1.553L86.581,1.553
			L86.581,1.553z M22.475,24.474v3.723l-2,0.656v-1.833l-1.143,0.375v6.215l1.129-0.37v1.904l-5.062,1.661v-1.903l1.116-0.367V28.32
			l-1.17,0.384v1.834l-2,0.656v-3.724L22.475,24.474 M30.98,21.683v3.165l-2.354,0.772v-1.274l-2.177,0.715v1.975l2.585-0.848v1.904
			l-2.585,0.848v2.335l2.177-0.715v-1.331l2.354-0.772v3.235l-8.205,2.693v-1.904l0.857-0.281v-6.215l-0.857,0.282v-1.891
			L30.98,21.683 M35.338,25.695l1.783-0.585l-0.898-2.798L35.338,25.695 M38.713,19.146l2.408,7.344l0.953-0.313v1.877l-5.457,1.791
			v-1.877l1.293-0.424l-0.286-0.88l-2.79,0.915l-0.286,1.068l1.062-0.349v1.875l-4.328,1.421v-1.876l0.925-0.304l1.838-6.89
			l-0.559,0.184V20.86L38.713,19.146 M86.74,15.371v2.303c0,0-38.52,14.863-46.894,20.515c-7.398,4.995-10.258,8.375-10.258,8.375
			s-2.512-3.978-6.281-5.025c-3.768-1.046-10.048-1.674-10.048-1.674L86.74,15.371 M55.42,13.663v1.848l-0.749,0.246v6.3
			l0.749-0.246v1.862l-4.301,1.411v-1.861l0.763-0.25v-4.783v-0.845l-0.055,0.018c-0.108,0.68-0.299,1.688-0.395,2.048l-1.429,6.039
			l-2.843,0.933l-1.525-5.212c-0.068-0.222-0.245-0.979-0.285-1.682l-0.055,0.018v5.642l0.776-0.255v1.847l-3.688,1.211v-1.848
			l0.735-0.241v-6.315l-0.721,0.236v-1.847l5.158-1.692l1.374,4.904l1.306-5.785L55.42,13.663 M65.965,10.203v1.848l-0.789,0.259
			l-1.974,2.438l2.748,3.609l0.79-0.26v1.862l-5.308,1.742v-1.862l0.926-0.303l-1.469-1.953l-1.008,1.233v1.532l0.735-0.242v1.862
			l-4.286,1.407v-1.862l0.734-0.241V14.97l-0.734,0.242v-1.848l4.286-1.407v1.848l-0.735,0.241v2.334l2.531-3.165l-0.98,0.322V11.69
			L65.965,10.203 M70.716,16.791l1.089-0.356c0.57-0.188,1.102-0.82,1.102-1.593c0-0.585-0.252-0.958-0.736-0.958
			c-0.121,0-0.257,0.024-0.406,0.073L70.716,14.3V16.791 M70.716,12.682l0.83-0.273c0.721-0.237,0.925-0.719,0.925-1.406
			c0-0.528-0.245-0.801-0.608-0.801c-0.089,0-0.187,0.016-0.289,0.05l-0.857,0.281V12.682 M73.897,7.832
			c1.094,0,1.622,0.59,1.622,1.685c0,1.203-0.313,1.893-1.334,2.657c0.033-0.001,0.064-0.002,0.097-0.002
			c0.937,0,1.7,0.503,1.7,1.847c0,2.019-1.076,3.259-3.701,4.122l-5.172,1.696v-1.862l0.789-0.259v-6.301l-0.789,0.259V9.827
			l5.076-1.666C72.86,7.939,73.432,7.832,73.897,7.832 M86.581,3.437v1.862l-1.156,0.379L83.37,9.116l2.449,2.719l0.789-0.259v1.862
			L81.18,15.22v-1.862l0.774-0.255l-1.034-1.121l-0.285-0.308l-1.402,2.336l1.212-0.397v1.847l-4.518,1.482v-1.848l1.184-0.388
			l2-3.392l-2.463-2.758l-0.708,0.232V6.929l5.39-1.769v1.862L80.54,7.281l1.333,1.467l1.389-2.36l-1.199,0.393V4.919L86.581,3.437"
			/>
	</g>
</g>
</svg>
