<?xml version="1.0" encoding="utf-8"?>
<!-- Generator: Adobe Illustrator 16.0.0, SVG Export Plug-In . SVG Version: 6.00 Build 0)  -->
<!DOCTYPE svg PUBLIC "-//W3C//DTD SVG 1.1//EN" "http://www.w3.org/Graphics/SVG/1.1/DTD/svg11.dtd">
<svg version="1.1" id="Ebene_1" xmlns="http://www.w3.org/2000/svg" xmlns:xlink="http://www.w3.org/1999/xlink" x="0px" y="0px"
	 width="65px" height="65px" viewBox="0 0 65 65" enable-background="new 0 0 65 65" xml:space="preserve">
<path fill="#FFFFFF" d="M52.586,49.554c-2.543,2.545-5.506,4.542-8.804,5.938c-3.415,1.444-7.043,2.176-10.782,2.176
	c-3.658,0-7.216-0.705-10.576-2.095l-0.47-0.194l-0.475,0.186l-13.776,5.38l3.331-13.321l0.146-0.585l-0.361-0.482
	C7.208,41.736,5.3,36,5.3,29.967c0-3.74,0.732-7.368,2.176-10.782c1.395-3.298,3.392-6.26,5.937-8.805s5.507-4.542,8.806-5.937
	C25.632,2.999,29.26,2.267,33,2.267c3.739,0,7.367,0.733,10.782,2.177c3.298,1.395,6.261,3.392,8.804,5.937
	c2.545,2.544,4.542,5.507,5.938,8.805c1.444,3.414,2.177,7.042,2.177,10.782c0,3.74-0.732,7.368-2.177,10.782
	C57.128,44.047,55.131,47.01,52.586,49.554z"/>
<path fill="#3C8A38" d="M33,6.295c-13.123,0-23.761,10.638-23.761,23.761c0,6.054,2.266,11.579,5.994,15.775l-2.498,8.801
	l9.134-3.579c3.32,1.764,7.108,2.765,11.131,2.765c13.123,0,23.76-10.639,23.76-23.761S46.123,6.295,33,6.295z M25.71,32.747
	l-4.938-4.939c-2.778-2.778-2.778-7.298,0-10.077c2.778-2.778,7.299-2.779,10.077,0l4.939,4.939l0.952,0.953
	c0.423,0.422,0.773,0.889,1.068,1.381c1.167,1.951,1.326,4.339,0.465,6.406c-0.195,0.468-0.445,0.917-0.744,1.341
	c-0.233,0.333-0.492,0.653-0.789,0.95c-0.296,0.297-0.616,0.554-0.948,0.787l-2.511-2.511c-0.253-0.253-0.369-0.59-0.354-0.922
	c0.245-0.125,0.48-0.278,0.686-0.483c0.206-0.205,0.358-0.44,0.485-0.687c0.231-0.455,0.326-0.958,0.284-1.455
	c-0.053-0.613-0.301-1.213-0.77-1.681l-2.211-2.211l-1.108-1.109l-2.571-2.572c-1.054-1.053-2.769-1.053-3.823,0
	c-1.054,1.054-1.054,2.768,0,3.822l2.572,2.57C25.613,28.963,25.355,30.901,25.71,32.747z M45.081,42.041
	c-2.777,2.778-7.298,2.777-10.077-0.001l-4.938-4.938l-0.953-0.953c-0.423-0.424-0.773-0.89-1.068-1.381
	c-1.168-1.95-1.326-4.34-0.465-6.407c0.194-0.467,0.445-0.916,0.745-1.34c0.233-0.332,0.491-0.652,0.788-0.949
	c0.296-0.296,0.616-0.555,0.948-0.788l2.511,2.509c0.253,0.253,0.367,0.589,0.354,0.923c-0.246,0.125-0.48,0.278-0.687,0.483
	c-0.205,0.206-0.358,0.44-0.484,0.686c-0.232,0.456-0.327,0.958-0.284,1.457c0.052,0.612,0.3,1.212,0.768,1.679l2.213,2.212
	l1.108,1.109l2.57,2.571c1.054,1.053,2.77,1.053,3.823,0.001c1.054-1.056,1.054-2.77,0-3.824l-2.571-2.57
	c0.857-1.712,1.115-3.65,0.76-5.496l4.938,4.939C47.859,34.741,47.859,39.263,45.081,42.041z"/>
</svg>
