<?xml version="1.0" encoding="utf-8"?>
<!DOCTYPE svg PUBLIC "-//W3C//DTD SVG 1.1//EN" "http://www.w3.org/Graphics/SVG/1.1/DTD/svg11.dtd">
<svg version="1.1" id="Ebene_1" xmlns="http://www.w3.org/2000/svg" xmlns:xlink="http://www.w3.org/1999/xlink" x="0px" y="0px"
	 width="16px" height="16px" viewBox="0 0 16 16" enable-background="new 0 0 16 16" xml:space="preserve">
<g>
	<g>
		<path fill-rule="evenodd" clip-rule="evenodd" fill="#FFFFFF" d="M8.129,0.945c-3.795,0-6.872,3.077-6.872,6.873
			c0,1.298,0.36,2.512,0.986,3.549l-1.24,3.688l3.805-1.219c0.984,0.544,2.116,0.854,3.321,0.854c3.795,0,6.871-3.075,6.871-6.871
			S11.924,0.945,8.129,0.945z M8.129,13.538c-1.162,0-2.244-0.348-3.147-0.946l-2.198,0.705l0.715-2.124
			c-0.686-0.944-1.09-2.103-1.09-3.354c0-3.155,2.566-5.722,5.721-5.722s5.721,2.566,5.721,5.722S11.283,13.538,8.129,13.538z
			 M11.352,9.379c-0.174-0.094-1.02-0.55-1.178-0.615C10.014,8.7,9.898,8.666,9.775,8.837C9.652,9.007,9.301,9.39,9.193,9.505
			C9.088,9.617,8.984,9.629,8.812,9.533c-0.171-0.096-0.73-0.3-1.378-0.923c-0.504-0.484-0.834-1.072-0.93-1.252
			c-0.095-0.18,0-0.271,0.091-0.354C6.677,6.928,6.778,6.805,6.87,6.706c0.091-0.1,0.124-0.171,0.187-0.286
			c0.062-0.115,0.038-0.218-0.003-0.308C7.012,6.023,6.694,5.146,6.561,4.79C6.428,4.434,6.28,4.486,6.177,4.482
			C6.075,4.479,5.958,4.459,5.841,4.456C5.724,4.451,5.533,4.487,5.366,4.657c-0.167,0.17-0.637,0.576-0.669,1.439
			s0.565,1.722,0.648,1.841c0.084,0.121,1.14,1.991,2.897,2.762c1.756,0.77,1.766,0.534,2.088,0.518
			c0.322-0.018,1.055-0.386,1.215-0.789c0.162-0.405,0.176-0.755,0.135-0.831C11.639,9.521,11.523,9.475,11.352,9.379z"/>
	</g>
</g>
</svg>
